<?xml version="1.0" encoding="UTF-8"?>
<svg id="_레이어_2" data-name="레이어 2" xmlns="http://www.w3.org/2000/svg" viewBox="0 0 1063.66 159.32">
  <g id="Layer">
    <g>
      <path d="M75.41,45.56c-3.76-4.11-8.16-7.29-13.19-9.54-5.03-2.26-10.5-3.38-16.4-3.38-3.24,0-6.42.43-9.54,1.3-3.12.87-6.02,2.03-8.68,3.47-2.66,1.45-5.06,3.18-7.2,5.21-1.69,1.6-3.1,3.3-4.25,5.08v-12.97H0v122.52h16.83v-46.77c1.06,1.65,2.38,3.21,3.99,4.69,2.08,1.91,4.45,3.56,7.11,4.95,2.66,1.39,5.52,2.49,8.59,3.3,3.06.81,6.16,1.21,9.28,1.21,5.9,0,11.37-1.16,16.4-3.47,5.03-2.31,9.43-5.49,13.19-9.54,3.76-4.05,6.71-8.88,8.85-14.49,2.14-5.61,3.21-11.77,3.21-18.48s-1.07-12.87-3.21-18.48c-2.14-5.61-5.09-10.47-8.85-14.58ZM68.2,91.03c-1.51,3.76-3.5,7-5.99,9.72-2.49,2.72-5.38,4.8-8.68,6.25-3.3,1.45-6.8,2.17-10.5,2.17s-7.03-.72-10.33-2.17c-3.3-1.45-6.22-3.53-8.76-6.25-2.55-2.72-4.54-5.96-5.99-9.72-1.45-3.76-2.17-7.9-2.17-12.41s.72-8.82,2.17-12.58c1.45-3.76,3.44-6.97,5.99-9.63,2.54-2.66,5.47-4.71,8.76-6.16,3.3-1.45,6.74-2.17,10.33-2.17s7.2.72,10.5,2.17c3.3,1.45,6.19,3.53,8.68,6.25,2.49,2.72,4.48,5.96,5.99,9.72,1.5,3.76,2.26,7.9,2.26,12.41s-.75,8.65-2.26,12.41Z"/>
      <path d="M173.72,46.83c-1.05-1.58-2.34-3.1-3.91-4.57-2.03-1.91-4.37-3.56-7.03-4.95-2.66-1.39-5.53-2.52-8.59-3.38-3.07-.87-6.22-1.3-9.46-1.3-5.9,0-11.37,1.13-16.4,3.38-5.03,2.26-9.43,5.44-13.19,9.54-3.76,4.11-6.71,8.97-8.85,14.58-2.14,5.61-3.21,11.77-3.21,18.48s1.07,12.87,3.21,18.48c2.14,5.61,5.09,10.44,8.85,14.49,3.76,4.05,8.16,7.23,13.19,9.54,5.03,2.31,10.5,3.47,16.4,3.47,3.24,0,6.45-.43,9.63-1.3,3.18-.87,6.16-2.05,8.94-3.56,2.78-1.5,5.21-3.27,7.29-5.29,1.57-1.52,2.84-3.13,3.82-4.82v12.89h16.14V34.71h-16.83v12.12ZM172.59,91.03c-1.45,3.76-3.44,7-5.99,9.72-2.55,2.72-5.44,4.8-8.68,6.25-3.24,1.45-6.71,2.17-10.41,2.17s-7.06-.72-10.41-2.17c-3.36-1.45-6.28-3.53-8.76-6.25-2.49-2.72-4.48-5.96-5.99-9.72-1.51-3.76-2.26-7.9-2.26-12.41s.75-8.65,2.26-12.41c1.5-3.76,3.5-7,5.99-9.72,2.49-2.72,5.41-4.8,8.76-6.25,3.35-1.45,6.83-2.17,10.41-2.17s7.17.72,10.41,2.17c3.24,1.45,6.13,3.5,8.68,6.16,2.54,2.66,4.54,5.87,5.99,9.63,1.45,3.76,2.17,7.96,2.17,12.58s-.72,8.65-2.17,12.41Z"/>
      <path d="M282.7,47c-1.03-1.57-2.3-3.1-3.82-4.57-1.97-1.91-4.25-3.58-6.85-5.03-2.6-1.45-5.41-2.6-8.42-3.47-3.01-.87-6.13-1.3-9.37-1.3-5.9,0-11.37,1.13-16.4,3.38-5.03,2.26-9.43,5.44-13.19,9.54-3.76,4.11-6.71,8.97-8.85,14.58-2.14,5.61-3.21,11.77-3.21,18.48s1.07,12.87,3.21,18.48c2.14,5.61,5.09,10.44,8.85,14.49,3.76,4.05,8.16,7.23,13.19,9.54,5.03,2.31,10.5,3.47,16.4,3.47,3.24,0,6.42-.43,9.54-1.3,3.12-.87,6.04-2.05,8.76-3.56,2.72-1.5,5.09-3.27,7.12-5.29,1.52-1.52,2.76-3.12,3.73-4.81v6.81c0,4.17-.64,7.95-1.91,11.37-1.27,3.41-3.1,6.34-5.47,8.76-2.37,2.43-5.27,4.28-8.68,5.55-3.41,1.27-7.2,1.91-11.37,1.91-6.36,0-12-1.25-16.92-3.73-4.92-2.49-8.94-5.81-12.06-9.98l-11.28,10.59c4.17,5.67,9.72,10.15,16.66,13.45,6.94,3.3,14.75,4.95,23.43,4.95,6.48,0,12.41-1.01,17.79-3.04,5.38-2.03,9.98-4.83,13.8-8.42,3.82-3.59,6.79-7.9,8.94-12.93,2.14-5.03,3.21-10.62,3.21-16.75V34.71h-16.83v12.29ZM281.66,91.03c-1.39,3.76-3.3,7-5.73,9.72-2.43,2.72-5.27,4.8-8.5,6.25-3.24,1.45-6.71,2.17-10.41,2.17s-7.06-.72-10.41-2.17c-3.36-1.45-6.28-3.53-8.76-6.25-2.49-2.72-4.49-5.96-5.99-9.72-1.51-3.76-2.26-7.9-2.26-12.41s.75-8.65,2.26-12.41c1.5-3.76,3.5-7,5.99-9.72,2.49-2.72,5.41-4.8,8.76-6.25,3.35-1.45,6.83-2.17,10.41-2.17s7.17.72,10.41,2.17c3.24,1.45,6.07,3.5,8.5,6.16,2.43,2.66,4.34,5.87,5.73,9.63,1.39,3.76,2.08,7.96,2.08,12.58s-.69,8.65-2.08,12.41Z"/>
      <path d="M395.25,44.6c-3.53-3.7-7.81-6.62-12.84-8.76-5.03-2.14-10.67-3.21-16.92-3.21-6.6,0-12.61,1.19-18.05,3.56-5.44,2.37-10.13,5.64-14.06,9.81-3.93,4.17-6.97,9.05-9.11,14.66-2.14,5.61-3.21,11.66-3.21,18.14s1.13,12.5,3.38,18.05c2.26,5.55,5.44,10.39,9.55,14.49,4.11,4.11,9.05,7.35,14.84,9.72,5.78,2.37,12.2,3.56,19.26,3.56s13.48-1.19,19.26-3.56c5.78-2.37,11.16-6.1,16.14-11.19l-10.24-11.8c-3.01,3.36-6.6,6.05-10.76,8.07-4.16,2.03-8.85,3.04-14.06,3.04-3.82,0-7.44-.58-10.85-1.74-3.41-1.15-6.45-2.86-9.11-5.12-2.66-2.26-4.86-5-6.59-8.24-1.74-3.24-2.78-6.94-3.12-11.11h66.47c.23-1.39.43-2.92.61-4.6.17-1.67.26-3.32.26-4.95,0-5.67-.93-10.96-2.78-15.88-1.85-4.92-4.54-9.22-8.07-12.93ZM339.28,69.25c.69-3.35,1.82-6.36,3.38-9.02,1.56-2.66,3.47-4.92,5.73-6.77,2.26-1.85,4.86-3.27,7.81-4.25,2.95-.98,6.1-1.48,9.46-1.48s6.25.52,9.02,1.56c2.78,1.04,5.21,2.49,7.29,4.34,2.08,1.85,3.79,4.11,5.12,6.77,1.33,2.66,2.17,5.61,2.52,8.85h-50.33Z"/>
      <path d="M435.6,32.63c-2.89,0-5.38,1.01-7.46,3.04-2.08,2.03-3.12,4.54-3.12,7.55s1.04,5.55,3.12,7.64c2.08,2.08,4.57,3.12,7.46,3.12s5.38-1.04,7.46-3.12c2.08-2.08,3.12-4.63,3.12-7.64s-1.04-5.52-3.12-7.55c-2.08-2.02-4.57-3.04-7.46-3.04Z"/>
      <path d="M435.6,103.26c-2.89,0-5.38,1.01-7.46,3.04-2.08,2.03-3.12,4.54-3.12,7.55s1.04,5.55,3.12,7.64c2.08,2.08,4.57,3.12,7.46,3.12s5.38-1.04,7.46-3.12c2.08-2.08,3.12-4.63,3.12-7.64s-1.04-5.52-3.12-7.55c-2.08-2.02-4.57-3.04-7.46-3.04Z"/>
      <polygon points="474.3 122.52 491.48 122.52 491.48 70.11 537.82 70.11 537.82 54.84 491.48 54.84 491.48 15.62 545.28 15.62 545.28 0 474.3 0 474.3 122.52"/>
      <path d="M626.15,46.83c-1.05-1.58-2.34-3.1-3.91-4.57-2.02-1.91-4.37-3.56-7.03-4.95-2.66-1.39-5.52-2.52-8.59-3.38-3.07-.87-6.22-1.3-9.46-1.3-5.9,0-11.37,1.13-16.4,3.38-5.03,2.26-9.43,5.44-13.19,9.54-3.76,4.11-6.71,8.97-8.85,14.58-2.14,5.61-3.21,11.77-3.21,18.48s1.07,12.87,3.21,18.48c2.14,5.61,5.09,10.44,8.85,14.49,3.76,4.05,8.16,7.23,13.19,9.54,5.03,2.31,10.5,3.47,16.4,3.47,3.24,0,6.45-.43,9.63-1.3,3.18-.87,6.16-2.05,8.94-3.56,2.78-1.5,5.21-3.27,7.29-5.29,1.57-1.52,2.84-3.13,3.82-4.82v12.89h16.14V34.71h-16.83v12.12ZM625.02,91.03c-1.45,3.76-3.44,7-5.99,9.72-2.55,2.72-5.44,4.8-8.68,6.25-3.24,1.45-6.71,2.17-10.41,2.17s-7.06-.72-10.41-2.17c-3.36-1.45-6.28-3.53-8.76-6.25-2.49-2.72-4.48-5.96-5.99-9.72-1.51-3.76-2.26-7.9-2.26-12.41s.75-8.65,2.26-12.41c1.5-3.76,3.5-7,5.99-9.72,2.49-2.72,5.41-4.8,8.76-6.25,3.35-1.45,6.82-2.17,10.41-2.17s7.17.72,10.41,2.17c3.24,1.45,6.13,3.5,8.68,6.16,2.54,2.66,4.54,5.87,5.99,9.63,1.45,3.76,2.17,7.96,2.17,12.58s-.72,8.65-2.17,12.41Z"/>
      <path d="M712.06,108.64c-4.86,0-9.14-.81-12.84-2.43-3.71-1.62-6.85-3.79-9.46-6.51-2.6-2.72-4.57-5.9-5.9-9.55-1.33-3.64-2-7.43-2-11.37,0-4.4.72-8.42,2.17-12.06,1.45-3.65,3.47-6.83,6.07-9.54,2.6-2.72,5.78-4.83,9.55-6.33,3.76-1.5,7.9-2.26,12.41-2.26,3.58,0,7.49.55,11.71,1.65,4.22,1.1,7.95,2.81,11.2,5.12v-16.83c-3.36-1.97-7.17-3.44-11.45-4.43-4.28-.98-8.5-1.47-12.67-1.47-6.71,0-12.9,1.19-18.57,3.56-5.67,2.37-10.56,5.61-14.66,9.72-4.11,4.11-7.29,8.97-9.55,14.58-2.26,5.61-3.38,11.72-3.38,18.31s1.16,12.52,3.47,18.14c2.31,5.61,5.49,10.47,9.54,14.58,4.05,4.11,8.91,7.32,14.58,9.63,5.67,2.31,11.8,3.47,18.4,3.47,2.08,0,4.19-.12,6.33-.35,2.14-.23,4.31-.58,6.51-1.04,2.2-.46,4.28-1.07,6.25-1.82,1.97-.75,3.82-1.65,5.55-2.69v-17.01c-3.12,2.43-6.77,4.2-10.93,5.29-4.16,1.1-8.27,1.65-12.32,1.65Z"/>
      <polygon points="780.6 5.9 764.12 5.9 764.12 34.71 746.76 34.71 746.76 48.77 763.94 48.77 763.94 122.52 780.78 122.52 780.78 48.77 801.6 48.77 801.6 34.71 780.6 34.71 780.6 5.9"/>
      <path d="M888.55,45.9c-4.05-4.11-8.85-7.35-14.41-9.72-5.55-2.37-11.57-3.56-18.05-3.56s-12.5,1.19-18.05,3.56c-5.55,2.37-10.35,5.61-14.4,9.72-4.05,4.11-7.23,8.97-9.55,14.58-2.32,5.61-3.47,11.66-3.47,18.14s1.16,12.53,3.47,18.14c2.31,5.61,5.49,10.47,9.55,14.58,4.05,4.11,8.85,7.35,14.4,9.72,5.55,2.37,11.57,3.56,18.05,3.56s12.49-1.19,18.05-3.56c5.56-2.37,10.35-5.61,14.41-9.72,4.05-4.11,7.23-8.96,9.55-14.58,2.31-5.61,3.47-11.66,3.47-18.14s-1.16-12.52-3.47-18.14c-2.32-5.61-5.5-10.47-9.55-14.58ZM882.3,90.42c-1.39,3.7-3.33,6.91-5.81,9.63-2.49,2.72-5.47,4.89-8.94,6.51-3.47,1.62-7.29,2.43-11.45,2.43s-7.98-.81-11.45-2.43c-3.47-1.62-6.45-3.79-8.94-6.51-2.49-2.72-4.43-5.93-5.81-9.63-1.39-3.7-2.08-7.64-2.08-11.8s.69-8.1,2.08-11.8c1.39-3.7,3.32-6.91,5.81-9.63,2.49-2.72,5.47-4.89,8.94-6.51,3.47-1.62,7.29-2.43,11.45-2.43s7.98.81,11.45,2.43c3.47,1.62,6.45,3.79,8.94,6.51,2.49,2.72,4.43,5.93,5.81,9.63,1.39,3.7,2.08,7.64,2.08,11.8s-.69,8.1-2.08,11.8Z"/>
      <path d="M964.91,32.63c-3.12,0-6.08.52-8.85,1.56-2.78,1.04-5.27,2.46-7.46,4.25-2.2,1.79-4.11,3.93-5.73,6.42-1.25,1.92-2.29,4-3.12,6.22v-16.38h-16.49v87.82h16.83v-42.52c0-8.91,2.2-16.23,6.59-21.95,4.4-5.73,11.11-8.59,20.13-8.59.58,0,1.18.03,1.82.09.63.06,1.13.15,1.48.26v-16.49c-.58-.23-1.33-.4-2.26-.52-.93-.11-1.91-.17-2.95-.17Z"/>
      <polygon points="1045.44 34.71 1020.61 101.25 995.11 34.71 976.19 34.71 1012.64 121.31 998.75 157.23 1014.89 157.23 1063.66 34.71 1045.44 34.71"/>
    </g>
  </g>
</svg>